{
  "asset": {
    "version": "2.0",
    "generator": "THREE.GLTFExporter"
  },
  "scenes": [
    {
      "nodes": [
        0
      ]
    }
  ],
  "scene": 0,
  "nodes": [
    {
      "children": [
        14
      ],
      "matrix": [
        0.01,
        0,
        0,
        0,
        0,
        0.01,
        0,
        0,
        0,
        0,
        0.01,
        0,
        0,
        0,
        0,
        1
      ]
    },
    {
      "matrix": [
        0.34806627147013625,
        0,
        0,
        0,
        0,
        2.334361893359302e-16,
        -0.5256515676540419,
        0,
        0,
        0.3480662714701562,
        1.5457247547263905e-16,
        0,
        -19.715919191244886,
        18.235254192461642,
        -1.4664281996605315,
        0.9999999999999998
      ],
      "name": "Cube 6",
      "mesh": 0
    },
    {
      "matrix": [
        0.8273181893930405,
        0,
        0.0016175780810514296,
        0,
        0,
        0.6887409232116898,
        0,
        0,
        -0.002949482897431499,
        0,
        1.5085273959465735,
        0,
        0.04977120020226523,
        -0.11168626906972186,
        0.00009731298495285759,
        1.0000000000000004
      ],
      "name": "cover",
      "mesh": 1
    },
    {
      "matrix": [
        1.6230128513328823,
        0,
        0,
        0,
        0,
        1.064334166001808,
        0,
        0,
        0,
        0,
        1.5192409009102126,
        0,
        30.15700811955017,
        174.49145512012024,
        -2.6470180673805928,
        1
      ],
      "name": "cover",
      "children": [
        1,
        2
      ]
    },
    {
      "matrix": [
        0.5287965158447482,
        0,
        0,
        0,
        0,
        3.546458065917655e-16,
        -0.798591361207592,
        0,
        0,
        0.5287965158447785,
        2.348328268929738e-16,
        0,
        -50.08155722481598,
        223.81183990804203,
        6.143087278265327,
        0.9999999999999998
      ],
      "name": "screen",
      "mesh": 2
    },
    {
      "matrix": [
        0.6887409232116898,
        0,
        0,
        0,
        0,
        0.17439795065305363,
        -0.0016991669120328917,
        0,
        0,
        0.0067101146627671785,
        0.6887082355161531,
        0,
        1.0658141036401501e-14,
        -0.6187337804566936,
        21.041657836782043,
        0.9999999999999999
      ],
      "name": "Cube 8",
      "mesh": 3
    },
    {
      "matrix": [
        0.6887409232116899,
        0,
        0,
        0,
        0,
        -0.006710114662767049,
        -0.6887082355161525,
        0,
        0,
        0.6887082355161525,
        -0.006710114662767049,
        0,
        1.0658141036401501e-14,
        2.8847703461748884,
        -8.84611192244439,
        0.9999999999999998
      ],
      "name": "Cube 7",
      "mesh": 4
    },
    {
      "matrix": [
        0.6887409232116898,
        0,
        0,
        0,
        0,
        1.529312061902507e-16,
        -0.6887409232117336,
        0,
        0,
        0.6887409232117336,
        1.529312061902507e-16,
        0,
        0.10733368366470586,
        -3.8858506789537435,
        -11.118552337486351,
        1
      ],
      "name": "Cube 5",
      "mesh": 5
    },
    {
      "matrix": [
        0.6887409232116897,
        0,
        0,
        0,
        0,
        1.5293120619024895e-16,
        -0.6887409232117258,
        0,
        0,
        0.6887409232117258,
        1.5293120619024895e-16,
        0,
        3.552713678800501e-15,
        -7.248995715548318,
        11.248811465046105,
        0.9999999999999999
      ],
      "name": "Cube 3",
      "mesh": 6
    },
    {
      "matrix": [
        1.5192409009102121,
        0,
        0,
        0,
        0,
        1.5192409009102121,
        0,
        0,
        0,
        0,
        1.5192409009102124,
        0,
        -37.37417792470616,
        232.06171561190405,
        -10.946567186060431,
        1
      ],
      "name": "topbody",
      "children": [
        5,
        6,
        7,
        8
      ]
    },
    {
      "matrix": [
        1.2568956313928883,
        0,
        0.002457490781149186,
        0,
        0,
        1.0463633806738588,
        0,
        0,
        -0.002345921716538755,
        0,
        1.1998330898024512,
        0,
        0.26793859195004,
        77.70781658673715,
        -2.568053075659101,
        0.9999999999999999
      ],
      "name": "body",
      "mesh": 7
    },
    {
      "matrix": [
        0.9999999999999998,
        0,
        0,
        0,
        0,
        0.9999999999999998,
        0,
        0,
        0,
        0,
        0.9999999999999998,
        0,
        0,
        -1.4210854715202004e-14,
        0,
        1
      ],
      "name": "Printer Big",
      "children": [
        3,
        4,
        9,
        10
      ]
    },
    {
      "matrix": [
        1,
        0,
        0,
        0,
        0,
        1,
        -6.123234040579691e-17,
        0,
        0,
        6.123234040579691e-17,
        1,
        0,
        3.865352482534945e-12,
        0.000015000003206592437,
        1000.2999999988602,
        1
      ],
      "camera": 0
    },
    {
      "matrix": [
        1,
        0,
        0,
        0,
        0,
        1,
        0,
        0,
        0,
        0,
        1,
        0,
        0,
        1,
        0,
        1
      ],
      "name": "Default Ambient Light"
    },
    {
      "name": "Scene 1",
      "children": [
        11,
        12,
        13
      ]
    }
  ],
  "bufferViews": [
    {
      "buffer": 0,
      "byteOffset": 0,
      "byteLength": 7200,
      "target": 34962,
      "byteStride": 12
    },
    {
      "buffer": 0,
      "byteOffset": 7200,
      "byteLength": 7200,
      "target": 34962,
      "byteStride": 12
    },
    {
      "buffer": 0,
      "byteOffset": 14400,
      "byteLength": 4800,
      "target": 34962,
      "byteStride": 8
    },
    {
      "buffer": 0,
      "byteOffset": 19200,
      "byteLength": 4296,
      "target": 34963
    },
    {
      "buffer": 0,
      "byteOffset": 23496,
      "byteLength": 10368,
      "target": 34962,
      "byteStride": 12
    },
    {
      "buffer": 0,
      "byteOffset": 33864,
      "byteLength": 10368,
      "target": 34962,
      "byteStride": 12
    },
    {
      "buffer": 0,
      "byteOffset": 44232,
      "byteLength": 5184,
      "target": 34963
    },
    {
      "buffer": 0,
      "byteOffset": 49416,
      "byteLength": 7200,
      "target": 34962,
      "byteStride": 12
    },
    {
      "buffer": 0,
      "byteOffset": 56616,
      "byteLength": 7200,
      "target": 34962,
      "byteStride": 12
    },
    {
      "buffer": 0,
      "byteOffset": 63816,
      "byteLength": 4800,
      "target": 34962,
      "byteStride": 8
    },
    {
      "buffer": 0,
      "byteOffset": 68616,
      "byteLength": 4296,
      "target": 34963
    },
    {
      "buffer": 0,
      "byteOffset": 72912,
      "byteLength": 28512,
      "target": 34962,
      "byteStride": 12
    },
    {
      "buffer": 0,
      "byteOffset": 101424,
      "byteLength": 28512,
      "target": 34962,
      "byteStride": 12
    },
    {
      "buffer": 0,
      "byteOffset": 129936,
      "byteLength": 11184,
      "target": 34963
    },
    {
      "buffer": 0,
      "byteOffset": 141120,
      "byteLength": 7200,
      "target": 34962,
      "byteStride": 12
    },
    {
      "buffer": 0,
      "byteOffset": 148320,
      "byteLength": 7200,
      "target": 34962,
      "byteStride": 12
    },
    {
      "buffer": 0,
      "byteOffset": 155520,
      "byteLength": 4800,
      "target": 34962,
      "byteStride": 8
    },
    {
      "buffer": 0,
      "byteOffset": 160320,
      "byteLength": 4296,
      "target": 34963
    },
    {
      "buffer": 0,
      "byteOffset": 164616,
      "byteLength": 2400,
      "target": 34962,
      "byteStride": 12
    },
    {
      "buffer": 0,
      "byteOffset": 167016,
      "byteLength": 2400,
      "target": 34962,
      "byteStride": 12
    },
    {
      "buffer": 0,
      "byteOffset": 169416,
      "byteLength": 1600,
      "target": 34962,
      "byteStride": 8
    },
    {
      "buffer": 0,
      "byteOffset": 171016,
      "byteLength": 936,
      "target": 34963
    },
    {
      "buffer": 0,
      "byteOffset": 171952,
      "byteLength": 7200,
      "target": 34962,
      "byteStride": 12
    },
    {
      "buffer": 0,
      "byteOffset": 179152,
      "byteLength": 7200,
      "target": 34962,
      "byteStride": 12
    },
    {
      "buffer": 0,
      "byteOffset": 186352,
      "byteLength": 4800,
      "target": 34962,
      "byteStride": 8
    },
    {
      "buffer": 0,
      "byteOffset": 191152,
      "byteLength": 4296,
      "target": 34963
    },
    {
      "buffer": 0,
      "byteOffset": 195448,
      "byteLength": 7296,
      "target": 34962,
      "byteStride": 12
    },
    {
      "buffer": 0,
      "byteOffset": 202744,
      "byteLength": 7296,
      "target": 34962,
      "byteStride": 12
    },
    {
      "buffer": 0,
      "byteOffset": 210040,
      "byteLength": 3648,
      "target": 34963
    }
  ],
  "buffers": [
    {
      "byteLength": 213688,
      "uri": "data:application/octet-stream;base64,"
    }
  ],
  "accessors": [
    {
      "bufferView": 0,
      "componentType": 5126,
      "count": 600,
      "max": [
        53,
        50.5,
        0.5
      ],
      "min": [
        -53,
        -50.5,
        -0.5
      ],
      "type": "VEC3"
    },
    {
      "bufferView": 1,
      "componentType": 5126,
      "count": 600,
      "max": [
        1,
        1,
        1
      ],
      "min": [
        -1,
        -1,
        -1
      ],
      "type": "VEC3"
    },
    {
      "bufferView": 2,
      "componentType": 5126,
      "count": 600,
      "max": [
        1,
        1
      ],
      "min": [
        0,
        0
      ],
      "type": "VEC2"
    },
    {
      "bufferView": 3,
      "componentType": 5123,
      "count": 2148,
      "max": [
        599
      ],
      "min": [
        0
      ],
      "type": "SCALAR"
    },
    {
      "bufferView": 4,
      "componentType": 5126,
      "count": 864,
      "max": [
        46.927738189697266,
        26.566740036010742,
        31.396697998046875
      ],
      "min": [
        -46.98789978027344,
        -26.566740036010742,
        -31.396697998046875
      ],
      "type": "VEC3"
    },
    {
      "bufferView": 5,
      "componentType": 5126,
      "count": 864,
      "max": [
        1,
        1,
        1
      ],
      "min": [
        -1,
        -1,
        -1
      ],
      "type": "VEC3"
    },
    {
      "bufferView": 6,
      "componentType": 5125,
      "count": 1296,
      "max": [
        863
      ],
      "min": [
        0
      ],
      "type": "SCALAR"
    },
    {
      "bufferView": 7,
      "componentType": 5126,
      "count": 600,
      "max": [
        53,
        50.5,
        0.5
      ],
      "min": [
        -53,
        -50.5,
        -0.5
      ],
      "type": "VEC3"
    },
    {
      "bufferView": 8,
      "componentType": 5126,
      "count": 600,
      "max": [
        1,
        1,
        1
      ],
      "min": [
        -1,
        -1,
        -1
      ],
      "type": "VEC3"
    },
    {
      "bufferView": 9,
      "componentType": 5126,
      "count": 600,
      "max": [
        1,
        1
      ],
      "min": [
        0,
        0
      ],
      "type": "VEC2"
    },
    {
      "bufferView": 10,
      "componentType": 5123,
      "count": 2148,
      "max": [
        599
      ],
      "min": [
        0
      ],
      "type": "SCALAR"
    },
    {
      "bufferView": 11,
      "componentType": 5126,
      "count": 2376,
      "max": [
        53,
        63.40214920043945,
        6.129976272583008
      ],
      "min": [
        -53,
        -44.43635177612305,
        -6.129976272583008
      ],
      "type": "VEC3"
    },
    {
      "bufferView": 12,
      "componentType": 5126,
      "count": 2376,
      "max": [
        1,
        0.9999859929084778,
        1
      ],
      "min": [
        -1,
        -0.9999420642852783,
        -1
      ],
      "type": "VEC3"
    },
    {
      "bufferView": 13,
      "componentType": 5125,
      "count": 2796,
      "max": [
        2375
      ],
      "min": [
        0
      ],
      "type": "SCALAR"
    },
    {
      "bufferView": 14,
      "componentType": 5126,
      "count": 600,
      "max": [
        53,
        44.43633270263672,
        1.3321055173873901
      ],
      "min": [
        -53,
        -44.43633270263672,
        -1.3321055173873901
      ],
      "type": "VEC3"
    },
    {
      "bufferView": 15,
      "componentType": 5126,
      "count": 600,
      "max": [
        1,
        1,
        1
      ],
      "min": [
        -1,
        -1,
        -1
      ],
      "type": "VEC3"
    },
    {
      "bufferView": 16,
      "componentType": 5126,
      "count": 600,
      "max": [
        1,
        1
      ],
      "min": [
        0,
        0
      ],
      "type": "VEC2"
    },
    {
      "bufferView": 17,
      "componentType": 5123,
      "count": 2148,
      "max": [
        599
      ],
      "min": [
        0
      ],
      "type": "SCALAR"
    },
    {
      "bufferView": 18,
      "componentType": 5126,
      "count": 200,
      "max": [
        54.1537971496582,
        46.95829772949219,
        9.573633193969727
      ],
      "min": [
        -54.1537971496582,
        -46.95829772949219,
        -9.573633193969727
      ],
      "type": "VEC3"
    },
    {
      "bufferView": 19,
      "componentType": 5126,
      "count": 200,
      "max": [
        1,
        1,
        1
      ],
      "min": [
        -1,
        -1,
        -1
      ],
      "type": "VEC3"
    },
    {
      "bufferView": 20,
      "componentType": 5126,
      "count": 200,
      "max": [
        1,
        1
      ],
      "min": [
        0,
        0
      ],
      "type": "VEC2"
    },
    {
      "bufferView": 21,
      "componentType": 5123,
      "count": 468,
      "max": [
        199
      ],
      "min": [
        0
      ],
      "type": "SCALAR"
    },
    {
      "bufferView": 22,
      "componentType": 5126,
      "count": 600,
      "max": [
        53,
        50.5,
        2.574003219604492
      ],
      "min": [
        -53,
        -50.5,
        -2.574003219604492
      ],
      "type": "VEC3"
    },
    {
      "bufferView": 23,
      "componentType": 5126,
      "count": 600,
      "max": [
        1,
        1,
        1
      ],
      "min": [
        -1,
        -1,
        -1
      ],
      "type": "VEC3"
    },
    {
      "bufferView": 24,
      "componentType": 5126,
      "count": 600,
      "max": [
        1,
        1
      ],
      "min": [
        0,
        0
      ],
      "type": "VEC2"
    },
    {
      "bufferView": 25,
      "componentType": 5123,
      "count": 2148,
      "max": [
        599
      ],
      "min": [
        0
      ],
      "type": "SCALAR"
    },
    {
      "bufferView": 26,
      "componentType": 5126,
      "count": 608,
      "max": [
        73.53068542480469,
        131.53224182128906,
        61
      ],
      "min": [
        -73.53068542480469,
        -74.26465606689453,
        -61
      ],
      "type": "VEC3"
    },
    {
      "bufferView": 27,
      "componentType": 5126,
      "count": 608,
      "max": [
        1,
        1,
        1
      ],
      "min": [
        -1,
        -1,
        -1
      ],
      "type": "VEC3"
    },
    {
      "bufferView": 28,
      "componentType": 5125,
      "count": 912,
      "max": [
        607
      ],
      "min": [
        0
      ],
      "type": "SCALAR"
    }
  ],
  "meshes": [
    {
      "primitives": [
        {
          "mode": 4,
          "attributes": {
            "POSITION": 0,
            "NORMAL": 1,
            "TEXCOORD_0": 2
          },
          "extras": {
            "parameters": {
              "width": 106,
              "widthSegments": 1,
              "heightSegments": 1,
              "depthSegments": 1,
              "cornerRadius": 11,
              "cornerSegments": 8,
              "height": 101,
              "depth": 1,
              "type": "CubeGeometry"
            },
            "type": "CubeGeometry"
          },
          "indices": 3
        }
      ]
    },
    {
      "primitives": [
        {
          "mode": 4,
          "attributes": {
            "POSITION": 4,
            "NORMAL": 5
          },
          "extras": {
            "type": "SubdivGeometry",
            "parameters": {
              "width": 93.97579956054688,
              "height": 53.133480072021484,
              "depth": 62.793399810791016
            }
          },
          "indices": 6
        }
      ]
    },
    {
      "primitives": [
        {
          "mode": 4,
          "attributes": {
            "POSITION": 7,
            "NORMAL": 8,
            "TEXCOORD_0": 9
          },
          "extras": {
            "parameters": {
              "width": 106,
              "widthSegments": 1,
              "heightSegments": 1,
              "depthSegments": 1,
              "cornerRadius": 11,
              "cornerSegments": 8,
              "height": 101,
              "depth": 1,
              "type": "CubeGeometry"
            },
            "type": "CubeGeometry"
          },
          "indices": 10
        }
      ]
    },
    {
      "primitives": [
        {
          "mode": 4,
          "attributes": {
            "POSITION": 11,
            "NORMAL": 12
          },
          "extras": {
            "type": "SubdivGeometry",
            "parameters": {
              "width": 106,
              "height": 107.8385009765625,
              "depth": 12.259952545166016
            }
          },
          "indices": 13
        }
      ]
    },
    {
      "primitives": [
        {
          "mode": 4,
          "attributes": {
            "POSITION": 14,
            "NORMAL": 15,
            "TEXCOORD_0": 16
          },
          "extras": {
            "parameters": {
              "width": 106,
              "widthSegments": 1,
              "heightSegments": 1,
              "depthSegments": 1,
              "cornerRadius": 4,
              "cornerSegments": 8,
              "height": 88.87266802813295,
              "depth": 2.664211063430505,
              "type": "CubeGeometry"
            },
            "type": "CubeGeometry"
          },
          "indices": 17
        }
      ]
    },
    {
      "primitives": [
        {
          "mode": 4,
          "attributes": {
            "POSITION": 18,
            "NORMAL": 19,
            "TEXCOORD_0": 20
          },
          "extras": {
            "parameters": {
              "width": 108.30759545962013,
              "widthSegments": 1,
              "heightSegments": 1,
              "depthSegments": 1,
              "cornerRadius": 4,
              "cornerSegments": 3,
              "height": 93.9165947699715,
              "depth": 19.147267280319433,
              "type": "CubeGeometry"
            },
            "type": "CubeGeometry"
          },
          "indices": 21
        }
      ]
    },
    {
      "primitives": [
        {
          "mode": 4,
          "attributes": {
            "POSITION": 22,
            "NORMAL": 23,
            "TEXCOORD_0": 24
          },
          "extras": {
            "parameters": {
              "width": 106,
              "widthSegments": 1,
              "heightSegments": 1,
              "depthSegments": 1,
              "cornerRadius": 11,
              "cornerSegments": 8,
              "height": 101,
              "depth": 5.148006664734825,
              "type": "CubeGeometry"
            },
            "type": "CubeGeometry"
          },
          "indices": 25
        }
      ]
    },
    {
      "primitives": [
        {
          "mode": 4,
          "attributes": {
            "POSITION": 26,
            "NORMAL": 27
          },
          "extras": {
            "type": "SubdivGeometry",
            "parameters": {
              "width": 147.06137084960938,
              "height": 205.7968978881836,
              "depth": 122
            }
          },
          "indices": 28
        }
      ]
    }
  ],
  "cameras": [
    {
      "type": "orthographic",
      "orthographic": {
        "xmag": 6.164074999999989,
        "ymag": 2.910562499999995,
        "zfar": 100000,
        "znear": 0
      }
    }
  ]
}